# xmcd
#
# Track frame offsets:
#       150
#       10950
#       30600
#       43125
#       61875
#       72900
#       84825
#       96075
#       126900
#       142125
#       159675
#
# Disc length: 2363 seconds
#
# Revision: 1
# Processed by: cddbd v1.5.1PL2 Copyright (c) Steve Scherf et al.
# Submitted via: MusiCat 1.1
#
DISCID=9409390b
DTITLE=Nina Simone - Wild Is The Wind
DYEAR=1966
DGENRE=
TTITLE0=I Love Your Loving Ways
TTITLE1=Four Women
TTITLE2=What More Can I Say
TTITLE3=Lilac Wine (from 'Dance me A Song')
TTITLE4=That's AllI Ask
TTITLE5=Break down And Let It All Out
TTITLE6=Why keep On Breaking My Heart
TTITLE7=Wild Is the Wind
TTITLE8=Black Is The Colour Of My True Loves Hair
TTITLE9=If I Should Lose You
TTITLE10=Either Way I Lose
EXTD=Philips\n\nfrom vinyl
EXTT0=
EXTT1=
EXTT2=
EXTT3=
EXTT4=
EXTT5=
EXTT6=
EXTT7=
EXTT8=
EXTT9=
EXTT10=
PLAYORDER=
